<?xml version="1.0" encoding="UTF-8" standalone="no"?>
<!-- Created with Inkscape (http://www.inkscape.org/) -->

<svg
        version="1.1"
        id="svg6189"
        xml:space="preserve"
        width="30.829"
        height="31.292"
        sodipodi:docname="outline-logo.svg"
        inkscape:version="1.2.2 (b0a8486541, 2022-12-01)"
        inkscape:export-filename="../icons/hicolor/48x48.png"
        inkscape:export-xdpi="150.32596"
        inkscape:export-ydpi="150.32596"
        xmlns:inkscape="http://www.inkscape.org/namespaces/inkscape"
        xmlns:sodipodi="http://sodipodi.sourceforge.net/DTD/sodipodi-0.dtd"
        xmlns="http://www.w3.org/2000/svg"
><defs
     id="defs6193" /><sodipodi:namedview
     id="namedview6191"
     pagecolor="#ffffff"
     bordercolor="#000000"
     borderopacity="0.25"
     inkscape:showpageshadow="2"
     inkscape:pageopacity="0"
     inkscape:pagecheckerboard="0"
     inkscape:deskcolor="#ffffff"
     showgrid="false"
     inkscape:zoom="25.734659"
     inkscape:cx="15.387808"
     inkscape:cy="18.496456"
     inkscape:window-width="1720"
     inkscape:window-height="1371"
     inkscape:window-x="0"
     inkscape:window-y="0"
     inkscape:window-maximized="0"
     inkscape:current-layer="svg6189" /><inkscape:clipboard
     style="font-variation-settings:normal;opacity:1;vector-effect:none;fill:#ff5d00;fill-opacity:1;stroke-width:0.135593;stroke-linecap:butt;stroke-linejoin:miter;stroke-miterlimit:4;stroke-dasharray:none;stroke-dashoffset:0;stroke-opacity:1;-inkscape-stroke:none;stop-color:#000000;stop-opacity:1"
     min="0.016,0.188"
     max="30.845,31.48"
     geom-min="0.016,0.188"
     geom-max="30.845,31.48" /><path
     style="fill:none;stroke:#f95b00;stroke-width:0.338;stroke-opacity:1;stroke-dasharray:none"
     d="M 3.0128249,16.257137 5.4215377,4.0726436 5.5515441,3.8562133 C 5.8057905,3.4329526 6.2047389,3.1106998 6.6705306,2.9523456 6.8707206,2.8842874 7.0104731,2.8725629 7.7964145,2.8578902 L 8.6937379,2.8411382 6.2919961,14.989387 C 4.0224496,26.468982 3.8845084,27.148301 3.7859229,27.331385 c -0.241016,0.447599 -0.674761,0.829805 -1.1391257,1.003771 -0.1911546,0.07161 -0.3020934,0.08076 -1.1273499,0.09295 l -0.91533068,0.01352 z"
     id="path358" /><path
     style="fill:none;stroke:#f95b00;stroke-width:0.338;stroke-opacity:1;stroke-dasharray:none"
     d="M 24.579643,16.274319 26.988322,4.0898256 27.118326,3.8733953 c 0.254246,-0.4232607 0.653194,-0.7455135 1.118986,-0.9038677 0.20019,-0.068058 0.339943,-0.079783 1.125884,-0.094455 L 30.260522,2.8583206 27.85878,15.00657 c -2.269586,11.479595 -2.407492,12.158914 -2.50608,12.341998 -0.241016,0.447599 -0.67476,0.829805 -1.139126,1.003771 -0.191154,0.07161 -0.302093,0.08076 -1.127349,0.09295 l -0.915333,0.01353 z"
     id="path358-3" /><path
     style="fill:none;stroke:#f95b00;stroke-width:0.338;stroke-opacity:1;stroke-dasharray:none"
     d="M 7.6451018,16.235382 10.056995,4.0350172 10.226645,3.7820424 c 0.331107,-0.4937358 0.827525,-0.8213217 1.357483,-0.8958029 0.136741,-0.019218 0.583092,-0.035282 0.991891,-0.035698 L 13.31929,2.849785 11.587337,11.64496 C 10.511029,17.110647 9.8251414,20.523989 9.7754979,20.661643 9.5261842,21.352915 8.9005856,21.88754 8.2023631,22.006016 L 7.9590682,22.047306 7.330138,25.241531 6.7012078,28.435756 H 5.9672053 5.2332065 Z"
     id="path360" /><path
     style="fill:none;stroke:#f95b00;stroke-width:0.338;stroke-opacity:1;stroke-dasharray:none"
     d="m 11.283354,21.070377 1.460112,-7.36537 0.116559,-0.191673 c 0.266799,-0.438746 0.664551,-0.767151 1.125297,-0.929105 0.234283,-0.08235 0.263764,-0.08339 2.677359,-0.09446 l 2.440469,-0.01119 -0.509933,2.532164 -0.509933,2.532164 -0.134721,0.241451 c -0.235327,0.421772 -0.560474,0.728584 -0.988814,0.933055 l -0.219523,0.104792 -1.753332,0.01881 -1.753332,0.01881 -0.952331,4.787962 -0.95233,4.787961 H 10.576053 9.8232046 Z"
     id="path362" /><path
     style="fill:none;stroke:#f95b00;stroke-width:0.338;stroke-opacity:1;stroke-dasharray:none"
     d="m 19.318446,19.437051 1.782956,-9.005543 0.170913,-0.254875 c 0.323607,-0.4825833 0.873207,-0.8401301 1.357748,-0.8832963 l 0.223226,-0.019886 0.632397,-3.2118329 0.632397,-3.2118328 h 0.752528 0.752529 l -2.35851,11.974607 c -1.422024,7.219894 -2.391482,12.071206 -2.441563,12.217889 -0.184547,0.54052 -0.6336,1.017936 -1.180279,1.254815 l -0.276571,0.119839 -0.915349,0.01283 -0.915349,0.01283 z"
     id="path364" /></svg>
